<svg enable-background="new 0 0 512 512" height="512" viewBox="0 0 512 512" width="512" xmlns="http://www.w3.org/2000/svg"><g id="_x31_7_Healthcare"><g><path d="m14.075 459.396h60.837c15.671 0 28.582-11.571 30.914-26.598 12.03.532 26.55-1.964 47.181 4.916l91.76 30.592c17.86 5.941 38.118 4.673 55.563-4.352l185.73-97.178c16.271-6.79 23.992-25.554 17.209-41.825-6.648-15.965-25.112-24.187-41.978-17.14l-108.104 47.853c1.513-18.211-12.651-31.993-29.011-32.425-.045-.001-.083-.026-.128-.026h-.128c-.18-.003-.347-.053-.528-.053-.094 0-.171.05-.264.053h-75.948l-58.051-27.094c-12.327-5.746-26.03-8.787-39.623-8.787h-43.678c-2.329-15.031-15.241-26.606-30.915-26.606h-60.838c-4.31 0-7.804 3.491-7.804 7.804v183.062c0 4.314 3.495 7.804 7.804 7.804zm168.453-149.132c62.691 28.977 59.683 28.557 62.921 28.557h78.47c7.711.285 13.907 6.605 13.907 14.381 0 7.957-6.474 14.435-14.435 14.435h-93.322c-4.31 0-7.804 3.491-7.804 7.804 0 4.314 3.494 7.804 7.804 7.804h93.978c4.624 0 9.376-1.778 13.623-3.651l129.782-57.449c8.338-3.468 17.937.473 21.412 8.81 3.471 8.33-.484 17.94-9.427 21.705l-186.309 97.445c-13.349 6.912-29.174 8.124-43.426 3.391l-91.756-30.584c-23.535-7.853-40.521-5.191-51.634-5.724v-114.248h43.193c11.329 0 22.749 2.53 33.023 7.324zm-160.649-33.93h53.032c8.707 0 15.791 7.08 15.791 15.791v135.871c0 8.711-7.084 15.791-15.791 15.791h-53.032z"/><path d="m293.809 292.232c1.341.937 2.904 1.402 4.466 1.402s3.125-.473 4.47-1.402c5.586-3.91 136.862-96.439 136.862-170.853 0-44.836-36.483-81.319-81.322-81.319-23.035 0-44.813 9.786-60.033 26.583-15.3-16.797-37.108-26.583-60.097-26.583-44.843 0-81.326 36.483-81.326 81.319 0 74.414 131.386 166.951 136.98 170.853zm-55.654-236.563c21.347 0 41.437 10.449 53.734 27.947 1.463 2.081 3.845 3.315 6.387 3.315h.015c2.549-.008 4.931-1.25 6.387-3.346 12.182-17.475 32.222-27.916 53.607-27.916 36.235 0 65.714 29.479 65.714 65.71 0 59.232-102.841 138.028-125.728 154.826-22.902-16.79-125.834-95.547-125.834-154.826 0-36.232 29.483-65.71 65.718-65.71z"/></g></g></svg>