<svg id="Layer_1" enable-background="new 0 0 512 512" height="512" viewBox="0 0 512 512" width="512" xmlns="http://www.w3.org/2000/svg"><path d="m318.237 294.009c-11.891-18.216-14.557-34.811-7.917-50.576 16.934-12.801 29.362-31.525 34.826-53.566h6.588c10.239 0 18.573-8.331 18.573-18.571v-15.715c0-7.536-4.532-14.009-10.998-16.917 14.221-50.128 2.471-92.91-32.792-117.938-39.664-28.151-100.879-27.55-139.358 1.359-33.501 25.169-43.569 66.924-27.983 114.926h-4.009c-10.239 0-18.568 8.331-18.568 18.571v15.715c0 10.239 8.329 18.571 18.568 18.571h7.964c5.99 22.852 20.093 42.453 39.164 55.35 5.723 15.23 2.91 31.254-8.536 48.791-133.132 1.081-157.683 67.036-157.683 195.974 0 12.14 9.883 22.019 22.028 22.019h395.796c12.145 0 22.023-9.879 22.023-22.019.001-121.053-10.745-194.872-157.686-195.974zm38.231-122.713c0 2.61-2.122 4.732-4.734 4.732h-4.094c.407-3.772.67-7.595.67-11.5 0-.345-.027-.691-.077-1.032l-1.908-12.647h5.408c2.613 0 4.734 2.122 4.734 4.732v15.715zm-201.301 4.732c-2.608 0-4.73-2.122-4.73-4.732v-15.715c0-2.61 2.122-4.732 4.73-4.732h4.73v14.715c0 3.539.223 7.024.597 10.464zm40.303-142.879c33.947-25.51 87.99-26.01 123.037-1.137 31.1 22.072 40.558 59.296 26.891 105h-1.163l-3.145-20.848c-1.689-11.264-11.933-19.508-23.758-19.508-.676 0-1.356.027-2.036.081l-1.095.083c-31.56 2.424-67.336 5.162-96.423-7.728-9.352-4.149-19.888-1.532-26.222 6.503l-21.969 27.893c-9.87-38.459-.883-70.228 25.883-90.339zm-21.735 132.415v-24.981l28.695-36.425c2.347-2.984 6.266-3.951 9.744-2.417 32.267 14.309 69.895 11.426 103.085 8.876l1.113-.086c4.761-.376 10.239 2.387 11.032 7.69l7.068 46.815c-.252 46.461-34.632 82.78-78.481 82.78-45.358.001-82.256-36.897-82.256-82.252zm44.986 88.564c11.467 4.844 24.061 7.527 37.27 7.527 13.383 0 25.992-2.899 37.369-8.069-2.065 16.256 2.96 33.224 15.003 50.645l-52.363 131.198-52.364-131.202c11.908-17.229 16.971-34.011 15.085-50.099zm235.179 244.035h-395.796c-4.514 0-8.19-3.669-8.19-8.181 0-123.639 20.532-180.031 140.281-182.089l57.894 145.059c1.297 3.259 4.401 5.365 7.91 5.365 3.523 0 6.626-2.115 7.901-5.354l57.906-145.076c126.761 1.929 140.278 57.658 140.278 182.096.001 4.511-3.67 8.18-8.184 8.18zm-302.567-155.889c.937 3.705-1.311 7.467-5.014 8.401-15.325 3.865-26.956 10.262-35.565 19.553-4.338 4.674-7.906 10.048-10.919 16.44-1.176 2.502-3.667 3.971-6.262 3.971-.987 0-1.991-.214-2.946-.662-3.455-1.628-4.937-5.752-3.306-9.21 3.577-7.588 8.045-14.3 13.284-19.947 10.478-11.314 24.325-19.023 42.326-23.564 3.718-.921 7.47 1.315 8.402 5.018zm-58.673 66.388c-1.212 5.608-2.203 11.841-2.933 18.528-.387 3.541-3.388 6.165-6.87 6.165-.252 0-.505-.014-.761-.041-3.802-.417-6.541-3.833-6.126-7.633.784-7.16 1.851-13.872 3.167-19.947.811-3.732 4.491-6.12 8.226-5.298 3.734.809 6.108 4.492 5.297 8.226zm319.783-27.65h-21.46v-21.467c0-4.401-3.581-7.98-7.982-7.98h-27.816c-4.401 0-7.982 3.579-7.982 7.98v21.467h-21.465c-4.401 0-7.982 3.579-7.982 7.98v27.819c0 4.401 3.581 7.98 7.982 7.98h21.465v21.454c0 4.401 3.581 7.98 7.982 7.98h27.816c4.401 0 7.982-3.579 7.982-7.98v-21.454h21.46c4.401 0 7.978-3.579 7.978-7.98v-27.819c0-4.401-3.576-7.98-7.978-7.98zm-5.86 29.941h-21.46c-4.401 0-7.978 3.579-7.978 7.98v21.454h-16.105v-21.454c0-4.401-3.581-7.98-7.982-7.98h-21.465v-16.102h21.465c4.401 0 7.982-3.579 7.982-7.98v-21.467h16.104v21.467c0 4.401 3.577 7.98 7.978 7.98h21.46v16.102z" fill="rgb(0,0,0)"/></svg>